<mxfile host="app.diagrams.net" modified="2021-08-23T12:55:56.374Z" agent="5.0 (X11; Linux x86_64) AppleWebKit/537.36 (KHTML, like Gecko) Chrome/93.0.4577.42 Safari/537.36 Edg/93.0.961.24" etag="b8_kvFDVzWBqjJtOSneK" version="14.9.8" type="github">
  <diagram id="F6i8IPUPQSoYvGJRSw4i" name="Page-1">
    <mxGraphModel dx="2200" dy="774" grid="1" gridSize="10" guides="1" tooltips="1" connect="1" arrows="1" fold="1" page="1" pageScale="1" pageWidth="850" pageHeight="1100" math="0" shadow="0">
      <root>
        <mxCell id="0" />
        <mxCell id="1" parent="0" />
        <mxCell id="sIRo5yuXBkOPFxUQ1F9w-11" value="" style="edgeStyle=orthogonalEdgeStyle;rounded=0;orthogonalLoop=1;jettySize=auto;html=1;" parent="1" source="sIRo5yuXBkOPFxUQ1F9w-1" target="sIRo5yuXBkOPFxUQ1F9w-4" edge="1">
          <mxGeometry relative="1" as="geometry" />
        </mxCell>
        <mxCell id="sIRo5yuXBkOPFxUQ1F9w-1" value="&lt;font style=&quot;font-size: 14px&quot; color=&quot;#ea6b66&quot;&gt;&lt;i&gt;void* realloc(ptr, size)&lt;/i&gt;&lt;/font&gt;" style="ellipse;whiteSpace=wrap;html=1;strokeWidth=2;fillWeight=2;hachureGap=8;fillStyle=dashed;sketch=1;fillColor=#ffe6cc;strokeColor=#d79b00;" parent="1" vertex="1">
          <mxGeometry x="80" y="320" width="160" height="80" as="geometry" />
        </mxCell>
        <mxCell id="sIRo5yuXBkOPFxUQ1F9w-8" value="" style="edgeStyle=orthogonalEdgeStyle;rounded=0;orthogonalLoop=1;jettySize=auto;html=1;" parent="1" source="sIRo5yuXBkOPFxUQ1F9w-4" target="sIRo5yuXBkOPFxUQ1F9w-7" edge="1">
          <mxGeometry relative="1" as="geometry">
            <Array as="points">
              <mxPoint x="160" y="540" />
              <mxPoint x="160" y="540" />
            </Array>
          </mxGeometry>
        </mxCell>
        <mxCell id="sIRo5yuXBkOPFxUQ1F9w-26" value="" style="edgeStyle=orthogonalEdgeStyle;rounded=0;orthogonalLoop=1;jettySize=auto;html=1;fillColor=#f8cecc;strokeColor=#b85450;" parent="1" source="sIRo5yuXBkOPFxUQ1F9w-4" target="sIRo5yuXBkOPFxUQ1F9w-25" edge="1">
          <mxGeometry relative="1" as="geometry" />
        </mxCell>
        <mxCell id="sIRo5yuXBkOPFxUQ1F9w-31" value="Y" style="edgeLabel;html=1;align=center;verticalAlign=middle;resizable=0;points=[];fontSize=16;" parent="sIRo5yuXBkOPFxUQ1F9w-26" vertex="1" connectable="0">
          <mxGeometry x="-0.7782" y="1" relative="1" as="geometry">
            <mxPoint as="offset" />
          </mxGeometry>
        </mxCell>
        <mxCell id="sIRo5yuXBkOPFxUQ1F9w-4" value="&lt;span&gt;&lt;b&gt;&lt;i&gt;ptr = NULL ?&lt;/i&gt;&lt;/b&gt;&lt;/span&gt;" style="rhombus;whiteSpace=wrap;html=1;strokeWidth=2;fillWeight=-1;hachureGap=8;fillStyle=cross-hatch;sketch=1;fillColor=#f8cecc;strokeColor=#b85450;" parent="1" vertex="1">
          <mxGeometry x="100" y="440" width="120" height="60" as="geometry" />
        </mxCell>
        <mxCell id="sIRo5yuXBkOPFxUQ1F9w-10" value="" style="edgeStyle=orthogonalEdgeStyle;rounded=0;orthogonalLoop=1;jettySize=auto;html=1;" parent="1" source="sIRo5yuXBkOPFxUQ1F9w-7" target="sIRo5yuXBkOPFxUQ1F9w-9" edge="1">
          <mxGeometry relative="1" as="geometry" />
        </mxCell>
        <mxCell id="sIRo5yuXBkOPFxUQ1F9w-28" value="" style="edgeStyle=orthogonalEdgeStyle;rounded=0;orthogonalLoop=1;jettySize=auto;html=1;fillColor=#e1d5e7;strokeColor=#9673a6;" parent="1" source="sIRo5yuXBkOPFxUQ1F9w-7" target="sIRo5yuXBkOPFxUQ1F9w-27" edge="1">
          <mxGeometry relative="1" as="geometry" />
        </mxCell>
        <mxCell id="sIRo5yuXBkOPFxUQ1F9w-33" value="Y" style="edgeLabel;html=1;align=center;verticalAlign=middle;resizable=0;points=[];fontSize=16;" parent="sIRo5yuXBkOPFxUQ1F9w-28" vertex="1" connectable="0">
          <mxGeometry x="-0.69" relative="1" as="geometry">
            <mxPoint x="-4" as="offset" />
          </mxGeometry>
        </mxCell>
        <mxCell id="sIRo5yuXBkOPFxUQ1F9w-7" value="&lt;span&gt;&lt;b&gt;&lt;i&gt;size = 0 ?&lt;/i&gt;&lt;/b&gt;&lt;/span&gt;" style="rhombus;whiteSpace=wrap;html=1;strokeWidth=2;fillWeight=-1;hachureGap=8;fillStyle=cross-hatch;sketch=1;fillColor=#e1d5e7;strokeColor=#9673a6;" parent="1" vertex="1">
          <mxGeometry x="100" y="560" width="120" height="60" as="geometry" />
        </mxCell>
        <mxCell id="sIRo5yuXBkOPFxUQ1F9w-13" value="" style="edgeStyle=orthogonalEdgeStyle;rounded=0;orthogonalLoop=1;jettySize=auto;html=1;fillColor=#d5e8d4;strokeColor=#82b366;" parent="1" source="sIRo5yuXBkOPFxUQ1F9w-9" target="sIRo5yuXBkOPFxUQ1F9w-12" edge="1">
          <mxGeometry relative="1" as="geometry" />
        </mxCell>
        <mxCell id="sIRo5yuXBkOPFxUQ1F9w-41" value="N" style="edgeLabel;html=1;align=center;verticalAlign=middle;resizable=0;points=[];fontSize=16;" parent="sIRo5yuXBkOPFxUQ1F9w-13" vertex="1" connectable="0">
          <mxGeometry x="-0.6857" y="1" relative="1" as="geometry">
            <mxPoint as="offset" />
          </mxGeometry>
        </mxCell>
        <mxCell id="sIRo5yuXBkOPFxUQ1F9w-20" value="" style="edgeStyle=orthogonalEdgeStyle;rounded=0;orthogonalLoop=1;jettySize=auto;html=1;" parent="1" source="sIRo5yuXBkOPFxUQ1F9w-9" target="sIRo5yuXBkOPFxUQ1F9w-19" edge="1">
          <mxGeometry relative="1" as="geometry" />
        </mxCell>
        <mxCell id="sIRo5yuXBkOPFxUQ1F9w-38" value="Y" style="edgeLabel;html=1;align=center;verticalAlign=middle;resizable=0;points=[];fontSize=16;" parent="sIRo5yuXBkOPFxUQ1F9w-20" vertex="1" connectable="0">
          <mxGeometry x="-0.0588" relative="1" as="geometry">
            <mxPoint as="offset" />
          </mxGeometry>
        </mxCell>
        <mxCell id="sIRo5yuXBkOPFxUQ1F9w-9" value="&lt;b&gt;&lt;i&gt;ptr分配大小 vs size&lt;/i&gt;&lt;/b&gt;" style="rhombus;whiteSpace=wrap;html=1;strokeWidth=2;fillWeight=-1;hachureGap=8;fillStyle=cross-hatch;sketch=1;fillColor=#dae8fc;strokeColor=#6c8ebf;" parent="1" vertex="1">
          <mxGeometry x="90" y="680" width="140" height="60" as="geometry" />
        </mxCell>
        <mxCell id="sIRo5yuXBkOPFxUQ1F9w-12" value="&lt;font style=&quot;font-size: 16px&quot;&gt;截断&lt;/font&gt;" style="whiteSpace=wrap;html=1;strokeWidth=2;fillColor=#d5e8d4;sketch=1;fillWeight=-1;hachureGap=8;fillStyle=cross-hatch;strokeColor=#82b366;" parent="1" vertex="1">
          <mxGeometry x="-80" y="880" width="120" height="60" as="geometry" />
        </mxCell>
        <mxCell id="sIRo5yuXBkOPFxUQ1F9w-22" value="" style="edgeStyle=orthogonalEdgeStyle;rounded=0;orthogonalLoop=1;jettySize=auto;html=1;fillColor=#b1ddf0;strokeColor=#10739e;" parent="1" source="sIRo5yuXBkOPFxUQ1F9w-19" target="sIRo5yuXBkOPFxUQ1F9w-21" edge="1">
          <mxGeometry relative="1" as="geometry" />
        </mxCell>
        <mxCell id="sIRo5yuXBkOPFxUQ1F9w-24" value="" style="edgeStyle=orthogonalEdgeStyle;rounded=0;orthogonalLoop=1;jettySize=auto;html=1;fillColor=#fad9d5;strokeColor=#ae4132;" parent="1" source="sIRo5yuXBkOPFxUQ1F9w-19" target="sIRo5yuXBkOPFxUQ1F9w-23" edge="1">
          <mxGeometry relative="1" as="geometry" />
        </mxCell>
        <mxCell id="sIRo5yuXBkOPFxUQ1F9w-39" value="Y" style="edgeLabel;html=1;align=center;verticalAlign=middle;resizable=0;points=[];fontSize=16;" parent="sIRo5yuXBkOPFxUQ1F9w-24" vertex="1" connectable="0">
          <mxGeometry x="-0.3143" y="2" relative="1" as="geometry">
            <mxPoint as="offset" />
          </mxGeometry>
        </mxCell>
        <mxCell id="sIRo5yuXBkOPFxUQ1F9w-19" value="ptr分配大小 vs malloc_usable_size" style="rhombus;whiteSpace=wrap;html=1;strokeWidth=2;fillWeight=-1;hachureGap=8;fillStyle=cross-hatch;sketch=1;fillColor=#fad9d5;strokeColor=#ae4132;" parent="1" vertex="1">
          <mxGeometry x="280" y="760" width="140" height="60" as="geometry" />
        </mxCell>
        <mxCell id="sIRo5yuXBkOPFxUQ1F9w-21" value="&lt;font style=&quot;font-size: 15px&quot;&gt;直接在原内存块后面扩充内存&lt;/font&gt;" style="whiteSpace=wrap;html=1;strokeWidth=2;fillColor=#b1ddf0;sketch=1;fillWeight=-1;hachureGap=8;fillStyle=cross-hatch;align=left;strokeColor=#10739e;" parent="1" vertex="1">
          <mxGeometry x="290" y="880" width="120" height="60" as="geometry" />
        </mxCell>
        <mxCell id="sIRo5yuXBkOPFxUQ1F9w-23" value="&lt;font style=&quot;font-size: 13px&quot;&gt;1.额外分配更大内存&lt;br&gt;&lt;/font&gt;&lt;div style=&quot;font-size: 13px&quot;&gt;&lt;span&gt;&lt;font style=&quot;font-size: 13px&quot;&gt;2.拷贝到新分配的内存中&lt;/font&gt;&lt;/span&gt;&lt;/div&gt;&lt;div style=&quot;font-size: 13px&quot;&gt;&lt;font style=&quot;font-size: 13px&quot;&gt;3.释放原内存空间&lt;/font&gt;&lt;/div&gt;" style="whiteSpace=wrap;html=1;strokeWidth=2;fillColor=#fad9d5;sketch=1;fillWeight=-1;hachureGap=8;fillStyle=cross-hatch;align=left;strokeColor=#ae4132;" parent="1" vertex="1">
          <mxGeometry x="510" y="880" width="120" height="60" as="geometry" />
        </mxCell>
        <mxCell id="sIRo5yuXBkOPFxUQ1F9w-25" value="&lt;font style=&quot;font-size: 16px&quot;&gt;等价于malloc&lt;/font&gt;" style="whiteSpace=wrap;html=1;strokeWidth=2;fillColor=#f8cecc;sketch=1;fillWeight=-1;hachureGap=8;fillStyle=cross-hatch;strokeColor=#b85450;" parent="1" vertex="1">
          <mxGeometry x="850" y="880" width="120" height="60" as="geometry" />
        </mxCell>
        <mxCell id="sIRo5yuXBkOPFxUQ1F9w-27" value="&lt;font style=&quot;font-size: 16px&quot;&gt;等价于free&lt;/font&gt;" style="whiteSpace=wrap;html=1;strokeWidth=2;fillColor=#e1d5e7;sketch=1;fillWeight=-1;hachureGap=8;fillStyle=cross-hatch;strokeColor=#9673a6;" parent="1" vertex="1">
          <mxGeometry x="670" y="880" width="120" height="60" as="geometry" />
        </mxCell>
        <mxCell id="sIRo5yuXBkOPFxUQ1F9w-30" value="" style="shape=curlyBracket;whiteSpace=wrap;html=1;rounded=1;flipH=1;fillColor=none;gradientDirection=south;rotation=90;" parent="1" vertex="1">
          <mxGeometry x="160" y="770" width="20" height="380" as="geometry" />
        </mxCell>
        <mxCell id="sIRo5yuXBkOPFxUQ1F9w-42" value="&lt;b&gt;地址不变&lt;/b&gt;&lt;br&gt;在原地址上修改" style="text;html=1;strokeColor=none;fillColor=none;align=center;verticalAlign=middle;whiteSpace=wrap;rounded=0;fontSize=16;" parent="1" vertex="1">
          <mxGeometry x="80" y="980" width="160" height="50" as="geometry" />
        </mxCell>
        <mxCell id="sIRo5yuXBkOPFxUQ1F9w-43" value="&lt;b&gt;地址变化&lt;/b&gt;&lt;br&gt;新建地址" style="text;html=1;strokeColor=none;fillColor=none;align=center;verticalAlign=middle;whiteSpace=wrap;rounded=0;fontSize=16;" parent="1" vertex="1">
          <mxGeometry x="490" y="980" width="160" height="50" as="geometry" />
        </mxCell>
        <mxCell id="sIRo5yuXBkOPFxUQ1F9w-44" value="" style="shape=curlyBracket;whiteSpace=wrap;html=1;rounded=1;flipH=1;fontSize=16;fillColor=#F19C99;gradientDirection=south;rotation=90;" parent="1" vertex="1">
          <mxGeometry x="440" y="580" width="20" height="940" as="geometry" />
        </mxCell>
        <mxCell id="sIRo5yuXBkOPFxUQ1F9w-45" value="&lt;div&gt;需要检查分配前后的ptr、size、malloc_usable_size避免&lt;b&gt;&lt;font style=&quot;font-size: 18px&quot; color=&quot;#ea6b66&quot;&gt;内存泄露&lt;/font&gt;&lt;/b&gt;和&lt;font style=&quot;font-size: 18px&quot; color=&quot;#ea6b66&quot;&gt;&lt;b&gt;double free&lt;/b&gt;&lt;/font&gt;&lt;/div&gt;" style="ellipse;shape=cloud;whiteSpace=wrap;html=1;fontSize=16;gradientDirection=south;align=center;fillColor=#fff2cc;strokeColor=#d6b656;" parent="1" vertex="1">
          <mxGeometry x="290" y="1050" width="300" height="130" as="geometry" />
        </mxCell>
      </root>
    </mxGraphModel>
  </diagram>
</mxfile>
